<svg width="459" height="451" viewBox="0 0 459 451" fill="none" xmlns="http://www.w3.org/2000/svg">
<path d="M351.527 303.422C335.761 303.028 323.541 304.608 313.293 308.951C310.336 310.134 305.606 310.136 305.211 313.888C306.788 315.467 306.985 318.034 308.365 320.206C310.733 324.154 314.869 329.486 318.614 332.251C322.752 335.41 326.892 338.568 331.226 341.333C338.914 346.072 347.586 348.835 355.075 353.575C359.413 356.337 363.746 359.894 368.082 362.855C370.251 364.432 371.629 367.002 374.39 367.988V367.397C373.009 365.618 372.615 363.052 371.236 361.077C369.267 359.103 367.294 357.326 365.323 355.351C359.608 347.652 352.513 340.938 344.827 335.41C338.521 331.065 324.723 325.142 322.162 317.836C322.162 317.836 321.963 317.64 321.767 317.442C326.103 317.047 331.226 315.467 335.367 314.283C342.067 312.504 348.177 312.9 355.075 311.123C358.228 310.333 361.382 309.346 364.534 308.358V306.582C360.989 303.028 358.426 298.29 354.681 294.933C344.63 286.243 333.592 277.754 322.162 270.646C316.051 266.696 308.167 264.129 301.663 260.773C299.3 259.588 295.357 258.996 293.978 257.022C290.429 252.678 288.458 246.953 285.897 241.819C280.183 230.958 274.663 218.914 269.735 207.463C266.189 199.762 264.021 192.06 259.685 184.954C239.385 151.387 217.311 131.05 183.412 111.106C176.119 106.96 167.448 105.183 158.185 103.012C153.259 102.814 148.33 102.42 143.404 102.221C140.25 100.839 137.096 97.0881 134.337 95.3108C123.105 88.2019 94.131 72.8025 85.8535 93.1398C80.5316 105.973 93.7379 118.609 98.2691 125.127C101.622 129.667 105.956 134.801 108.322 139.935C109.701 143.29 110.095 146.846 111.474 150.4C114.629 159.085 117.584 168.762 121.724 176.858C123.892 181.004 126.256 185.347 129.016 189.099C130.593 191.27 133.351 192.259 133.944 195.812C131.185 199.762 130.987 205.686 129.409 210.621C122.314 232.933 125.075 260.576 135.125 276.964C138.278 281.898 145.768 292.762 155.819 288.614C164.689 285.06 162.718 273.805 165.278 263.933C165.872 261.561 165.478 259.984 166.659 258.404V258.8C169.419 264.327 172.177 269.66 174.74 275.188C180.85 284.862 191.492 294.933 200.36 301.647C205.092 305.199 208.836 311.32 214.749 313.493V312.899H214.354C213.171 311.122 211.397 310.333 209.822 308.95C206.275 305.397 202.332 301.053 199.573 297.104C191.297 286.045 184.003 273.804 177.499 261.167C174.347 255.048 171.586 248.334 169.025 242.213C167.841 239.842 167.841 236.289 165.871 235.106C162.914 239.449 158.579 243.201 156.411 248.531C152.668 257.022 152.273 267.486 150.893 278.345C150.104 278.545 150.497 278.345 150.103 278.742C143.798 277.16 141.63 270.646 139.263 265.117C133.35 251.099 132.365 228.589 137.491 212.399C138.87 208.252 144.784 195.221 142.418 191.272C141.236 187.52 137.292 185.347 135.125 182.387C132.564 178.635 129.803 173.898 128.03 169.75C123.3 158.692 120.934 146.45 115.811 135.393C113.445 130.259 109.308 124.929 105.956 120.19C102.212 114.859 98.0732 111.106 95.1165 104.788C94.1321 102.617 92.7512 99.0628 94.3281 96.6931C94.7223 95.1133 95.5096 94.5221 97.0876 94.1271C99.65 91.9538 106.943 94.7184 109.503 95.9032C116.796 98.863 122.906 101.63 129.016 105.776C131.774 107.75 134.731 111.502 138.278 112.49H142.417C148.725 113.871 155.818 112.885 161.732 114.661C172.178 118.017 181.637 122.953 190.113 128.285C215.932 144.673 237.215 167.972 251.604 195.812C253.97 200.352 254.954 204.501 257.122 209.238C261.263 218.914 266.386 228.787 270.523 238.264C274.663 247.543 278.604 257.022 284.517 264.723C287.474 268.868 299.298 271.041 304.62 273.213C308.562 274.989 314.673 276.57 318.219 278.741C324.92 282.886 331.621 287.627 337.928 292.167C341.082 294.537 350.935 299.473 351.527 303.422Z" fill="#00546B"/>
<path d="M104.326 76.9938C99.0239 76.9938 95.2819 77.6202 91.5382 78.5526V79.1753H92.1622C94.6598 84.1577 99.0238 87.5831 102.142 91.9408C104.639 96.9214 106.821 101.906 109.319 106.888C109.629 106.575 109.941 106.265 109.941 106.265C114.311 103.149 116.493 98.1688 116.493 90.6952C114.621 88.5173 114.309 86.3375 112.749 84.1577C110.879 81.0419 106.821 79.4867 104.326 76.9938Z" fill="#00546B"/>
</svg>
