<svg width="336" height="182" viewBox="0 0 336 182" fill="none" xmlns="http://www.w3.org/2000/svg">
<g clip-path="url(#clip0_95_301)">
<mask id="mask0_95_301" style="mask-type:luminance" maskUnits="userSpaceOnUse" x="4" y="4" width="328" height="174">
<path d="M4.72437 91.0001C4.72437 138.637 77.8268 177.255 168 177.255C258.173 177.255 331.276 138.637 331.276 91.0001C331.276 43.3635 258.173 4.74461 168 4.74461C77.8268 4.74461 4.72437 43.3635 4.72437 91.0001Z" fill="white"/>
</mask>
<g mask="url(#mask0_95_301)">
<path d="M4.72437 91.0001C4.72437 138.637 77.8268 177.255 168 177.255C258.173 177.255 331.276 138.637 331.276 91.0001C331.276 43.3635 258.173 4.74461 168 4.74461C77.8268 4.74461 4.72437 43.3635 4.72437 91.0001Z" fill="url(#paint0_radial_95_301)"/>
</g>
<mask id="mask1_95_301" style="mask-type:luminance" maskUnits="userSpaceOnUse" x="-3" y="-6" width="342" height="194">
<path d="M-2.07874 -5.07726H338.078V187.077H-2.07874V-5.07726Z" fill="white"/>
</mask>
<g mask="url(#mask1_95_301)">
<path d="M168 170.851C254.65 170.851 324.897 135.1 324.897 90.9998C324.897 46.8998 254.65 11.1484 168 11.1484C81.3488 11.1484 11.1023 46.8998 11.1023 90.9998C11.1023 135.1 81.3488 170.851 168 170.851Z" fill="#777BB3"/>
</g>
<mask id="mask2_95_301" style="mask-type:luminance" maskUnits="userSpaceOnUse" x="-3" y="-6" width="342" height="194">
<path d="M-2.07874 -5.07726H338.078V187.077H-2.07874V-5.07726Z" fill="white"/>
</mask>
<g mask="url(#mask2_95_301)">
<path d="M93.4336 100.9C100.559 100.9 105.878 99.5808 109.243 96.9796C112.573 94.4051 114.872 89.9446 116.078 83.7227C117.201 77.907 116.773 73.8463 114.806 71.6549C112.794 69.4167 108.444 68.2815 101.877 68.2815H90.4903L84.1779 100.9H93.4336ZM56.1917 141.081C55.6632 141.081 55.1612 140.844 54.8252 140.433C54.4886 140.023 54.3521 139.484 54.4531 138.962L71.1822 52.5219C71.344 51.6863 72.0734 51.0825 72.9214 51.0825H108.977C120.308 51.0825 128.743 54.1724 134.044 60.2674C139.374 66.3944 141.02 74.9589 138.935 85.7225C138.087 90.1077 136.629 94.1803 134.6 97.8265C132.569 101.477 129.885 104.854 126.621 107.867C122.714 111.539 118.292 114.202 113.49 115.769C108.764 117.315 102.694 118.099 95.4497 118.099H80.8501L76.6808 139.641C76.519 140.477 75.7903 141.081 74.9423 141.081H56.1917Z" fill="black"/>
<path d="M91.9508 70.0605H101.877C109.803 70.0605 112.556 71.807 113.491 72.8479C115.043 74.5761 115.336 78.2199 114.339 83.3849C113.218 89.1674 111.14 93.2673 108.163 95.5696C105.114 97.9264 100.158 99.1209 93.4337 99.1209H86.327L91.9508 70.0605ZM108.977 49.303H72.921C71.2249 49.303 69.7668 50.5105 69.4432 52.1824L52.7141 138.623C52.5121 139.666 52.785 140.745 53.4576 141.565C54.1308 142.385 55.1336 142.86 56.1919 142.86H74.9418C76.6385 142.86 78.0965 141.652 78.4202 139.98L82.3107 119.878H95.4499C102.88 119.878 109.135 119.065 114.04 117.46C119.084 115.815 123.724 113.024 127.831 109.167C131.228 106.028 134.026 102.506 136.146 98.695C138.267 94.8834 139.791 90.6328 140.675 86.0615C142.869 74.7315 141.086 65.6587 135.378 59.097C129.725 52.5981 120.842 49.303 108.977 49.303ZM82.0284 102.679H93.4337C100.993 102.679 106.624 101.249 110.324 98.389C114.024 95.528 116.52 90.7532 117.817 84.0622C119.058 77.6381 118.493 73.1047 116.121 70.4637C113.747 67.8228 109 66.502 101.877 66.502H89.03L82.0284 102.679ZM108.977 52.8614C119.824 52.8614 127.736 55.72 132.71 61.4378C137.683 67.1556 139.181 75.1365 137.196 85.383C136.38 89.6039 134.998 93.463 133.054 96.9591C131.107 100.458 128.564 103.657 125.423 106.557C121.679 110.076 117.519 112.584 112.943 114.077C108.366 115.574 102.536 116.32 95.4499 116.32H79.3893L74.9418 139.301H56.1919L72.921 52.8614H108.977Z" fill="white"/>
<path d="M181.927 118.099C181.398 118.099 180.896 117.862 180.56 117.452C180.223 117.042 180.087 116.503 180.187 115.981L187.588 77.7345C188.292 74.0972 188.118 71.4865 187.099 70.3834C186.476 69.709 184.602 68.5781 179.064 68.5781H165.657L156.353 116.659C156.191 117.496 155.462 118.099 154.614 118.099H136.011C135.482 118.099 134.981 117.862 134.644 117.452C134.308 117.042 134.171 116.502 134.272 115.981L151.001 29.5404C151.163 28.7048 151.892 28.1011 152.74 28.1011H171.343C171.872 28.1011 172.373 28.3383 172.71 28.7481C173.047 29.1585 173.183 29.6976 173.082 30.2195L169.045 51.0825H183.467C194.455 51.0825 201.905 53.0278 206.244 57.0298C210.668 61.1125 212.048 67.6404 210.347 76.4345L202.563 116.659C202.402 117.496 201.673 118.099 200.824 118.099H181.927Z" fill="black"/>
<path d="M171.343 26.3216H152.741C151.044 26.3216 149.586 27.5291 149.262 29.2009L132.533 115.641C132.331 116.685 132.604 117.763 133.277 118.584C133.951 119.404 134.953 119.878 136.012 119.878H154.614C156.31 119.878 157.769 118.671 158.092 116.999L167.118 70.357H179.064C184.593 70.357 185.754 71.5431 185.8 71.5941C186.136 71.9565 186.577 73.6349 185.849 77.3949L178.448 115.641C178.246 116.685 178.519 117.763 179.193 118.584C179.866 119.404 180.869 119.878 181.927 119.878H200.824C202.52 119.878 203.979 118.671 204.303 116.999L212.086 76.774C213.912 67.3317 212.35 60.2487 207.443 55.72C202.761 51.4019 194.919 49.303 183.468 49.303H171.194L174.821 30.5591C175.023 29.5158 174.75 28.4365 174.077 27.6168C173.404 26.7966 172.401 26.3216 171.343 26.3216ZM171.343 29.88L166.896 52.8614H183.468C193.895 52.8614 201.087 54.6893 205.046 58.3402C209.004 61.9935 210.19 67.913 208.608 76.0955L200.824 116.32H181.927L189.327 78.074C190.169 73.7233 189.86 70.7555 188.397 69.1732C186.935 67.5909 183.823 66.7986 179.064 66.7986H164.196L154.614 116.32H136.012L152.741 29.88H171.343Z" fill="white"/>
<path d="M239.781 100.9C246.906 100.9 252.225 99.5808 255.591 96.9796C258.92 94.4056 261.22 89.9452 262.426 83.7227C263.549 77.907 263.121 73.8463 261.153 71.6549C259.141 69.4167 254.791 68.2815 248.224 68.2815H236.838L230.525 100.9H239.781ZM202.54 141.081C202.011 141.081 201.509 140.844 201.173 140.433C200.837 140.023 200.7 139.484 200.801 138.962L217.53 52.5219C217.692 51.6863 218.421 51.0825 219.269 51.0825H255.324C266.656 51.0825 275.09 54.1724 280.392 60.2674C285.722 66.3938 287.367 74.9583 285.284 85.7225C284.434 90.1077 282.976 94.1803 280.948 97.8265C278.917 101.477 276.233 104.854 272.969 107.867C269.062 111.539 264.64 114.202 259.837 115.769C255.111 117.315 249.041 118.099 241.797 118.099H227.197L223.029 139.641C222.867 140.477 222.138 141.081 221.29 141.081H202.54Z" fill="black"/>
<path d="M238.298 70.0605H248.224C256.15 70.0605 258.903 71.807 259.839 72.8479C261.391 74.5761 261.684 78.2199 260.686 83.3844C259.565 89.1674 257.487 93.2673 254.51 95.5696C251.462 97.9264 246.506 99.1209 239.781 99.1209H232.675L238.298 70.0605ZM255.324 49.303H219.269C217.573 49.303 216.115 50.5105 215.791 52.1824L199.062 138.623C198.86 139.666 199.133 140.745 199.806 141.565C200.479 142.385 201.482 142.86 202.54 142.86H221.29C222.986 142.86 224.445 141.652 224.768 139.98L228.658 119.878H241.797C249.228 119.878 255.483 119.065 260.387 117.46C265.431 115.815 270.073 113.024 274.18 109.166C277.577 106.028 280.374 102.506 282.494 98.695C284.615 94.8834 286.138 90.6328 287.022 86.0615C289.216 74.7309 287.434 65.6581 281.726 59.0964C276.073 52.5981 267.19 49.303 255.324 49.303ZM228.376 102.679H239.781C247.341 102.679 252.972 101.249 256.671 98.389C260.372 95.528 262.868 90.7532 264.164 84.0622C265.406 77.6381 264.841 73.1047 262.469 70.4637C260.095 67.8228 255.347 66.502 248.224 66.502H235.377L228.376 102.679ZM255.324 52.8614C266.171 52.8614 274.084 55.72 279.057 61.4378C284.031 67.1556 285.528 75.1365 283.544 85.383C282.727 89.6039 281.346 93.463 279.401 96.9591C277.454 100.458 274.912 103.657 271.77 106.557C268.026 110.076 263.867 112.584 259.29 114.077C254.713 115.574 248.884 116.32 241.797 116.32H225.737L221.29 139.301H202.54L219.269 52.8614H255.324Z" fill="white"/>
</g>
</g>
<defs>
<radialGradient id="paint0_radial_95_301" cx="0" cy="0" r="1" gradientUnits="userSpaceOnUse" gradientTransform="translate(102.756 35.0694) scale(214.404 215.319)">
<stop stop-color="#AEB2D5"/>
<stop offset="0.3" stop-color="#AEB2D5"/>
<stop offset="0.75" stop-color="#484C89"/>
<stop offset="1" stop-color="#484C89"/>
</radialGradient>
<clipPath id="clip0_95_301">
<rect width="336" height="182" fill="white"/>
</clipPath>
</defs>
</svg>
