<svg width="436" height="314" viewBox="0 0 436 314" fill="none" xmlns="http://www.w3.org/2000/svg">
<path fill-rule="evenodd" clip-rule="evenodd" d="M326.877 115.066C326.959 115.282 327 115.503 327 115.724V150.416C327 150.862 326.836 151.3 326.525 151.686C326.214 152.072 325.767 152.392 325.229 152.614L284.803 169.378V202.604C284.803 203.048 284.64 203.484 284.332 203.869C284.023 204.254 283.58 204.574 283.046 204.797L198.652 239.788C198.455 239.867 198.244 239.916 198.039 239.97C197.958 239.989 197.883 240.024 197.801 240.043C197.211 240.155 196.592 240.155 196.002 240.043C195.9 240.024 195.818 239.984 195.723 239.96C195.532 239.911 195.328 239.862 195.144 239.788L110.764 204.797C110.229 204.575 109.784 204.255 109.475 203.87C109.165 203.485 109.001 203.048 109 202.604V98.5273C109 98.3016 109.041 98.0808 109.123 97.8649C109.15 97.7913 109.211 97.7275 109.245 97.6539C109.313 97.5215 109.375 97.3841 109.47 97.2614C109.538 97.178 109.634 97.1143 109.709 97.0358C109.811 96.9376 109.906 96.8297 110.022 96.7414C110.124 96.6678 110.254 96.6138 110.369 96.55C110.499 96.4764 110.608 96.393 110.758 96.3342L152.954 78.8385C153.488 78.6177 154.093 78.5015 154.708 78.5015C155.324 78.5015 155.929 78.6177 156.463 78.8385L198.659 96.3342C198.802 96.3979 198.925 96.4764 199.048 96.55C199.163 96.6138 199.293 96.6678 199.388 96.7365C199.518 96.8346 199.606 96.9327 199.708 97.0358C199.783 97.1143 199.886 97.178 199.947 97.2614C200.049 97.3841 200.104 97.5215 200.179 97.6539C200.213 97.7275 200.274 97.7913 200.294 97.8698C200.377 98.084 200.421 98.305 200.424 98.5273V163.535L235.576 148.954V115.724C235.579 115.501 235.623 115.28 235.706 115.066C235.733 114.988 235.787 114.919 235.828 114.85C235.896 114.718 235.958 114.581 236.053 114.458C236.121 114.374 236.217 114.311 236.292 114.232C236.394 114.134 236.482 114.026 236.605 113.938C236.707 113.864 236.837 113.815 236.946 113.751C237.082 113.673 237.198 113.589 237.334 113.531L279.537 96.0349C280.071 95.8136 280.676 95.6971 281.292 95.6971C281.907 95.6971 282.512 95.8136 283.046 96.0349L325.242 113.531C325.392 113.594 325.501 113.678 325.637 113.746C325.746 113.81 325.869 113.864 325.978 113.938C326.094 114.026 326.182 114.134 326.291 114.232C326.366 114.311 326.462 114.379 326.523 114.458C326.625 114.581 326.687 114.718 326.755 114.85C326.796 114.924 326.85 114.988 326.877 115.066ZM319.969 148.954V120.105L305.2 126.228L284.803 134.686V163.535L319.969 148.954ZM277.773 201.142V172.273L257.71 180.525L200.417 204.075V233.219L277.773 201.142ZM116.03 102.909V201.142L193.386 233.214V204.08L152.975 187.61L152.961 187.6L152.941 187.595C152.804 187.536 152.695 187.458 152.566 187.384C152.457 187.325 152.328 187.272 152.232 187.203L152.225 187.193C152.109 187.115 152.028 187.016 151.932 186.928C151.844 186.845 151.742 186.771 151.673 186.683L151.667 186.673C151.585 186.575 151.537 186.462 151.483 186.354C151.421 186.261 151.347 186.173 151.312 186.069C151.272 185.947 151.265 185.824 151.244 185.697C151.224 185.598 151.19 185.51 151.19 185.412V117.485L130.8 109.027L116.03 102.909ZM154.712 83.9557L119.559 98.5273L154.705 113.099L189.858 98.5273L154.712 83.9557ZM172.997 174.903L193.386 166.449V102.909L178.624 109.027L158.227 117.485V181.026L172.997 174.903ZM281.288 101.152L246.136 115.724L281.288 130.295L316.427 115.724L281.288 101.152ZM277.766 134.686L257.369 126.228L242.607 120.105V148.954L262.997 157.407L277.766 163.535V134.686ZM196.888 199.694L248.445 178.499L274.217 167.902L239.092 153.34L198.652 170.109L161.797 185.392L196.888 199.694Z" fill="#FF2D20"/>
</svg>
